<?xml version="1.0" encoding="utf-8"?>
<!-- Generator: Adobe Illustrator 26.3.1, SVG Export Plug-In . SVG Version: 6.00 Build 0)  -->
<svg version="1.1" id="Layer_1" xmlns="http://www.w3.org/2000/svg" xmlns:xlink="http://www.w3.org/1999/xlink" x="0px" y="0px"
	 viewBox="0 0 410.1 151.7" style="enable-background:new 0 0 410.1 151.7;" xml:space="preserve">
<style type="text/css">
	.st0{fill:#072F5F;}
	.st1{fill:#1261A0;}
	.st2{fill:#231F20;}
</style>
<g>
	<g>
		<polygon class="st0" points="101.5,16.7 95.1,16.7 90.9,16.7 89,16.7 78.5,16.7 20.7,135 31.3,135 32.8,135 37.4,135 43.4,135 
			49.5,135 107.5,16.7 		"/>
		<polygon class="st1" points="72.1,135 105.2,67.2 131.5,135 		"/>
	</g>
	<g>
		<path class="st2" d="M154.8,74.5L149.8,62h-18.2l-5,12.6h-4.6L138,34.4h5.4l16.1,40.2H154.8z M143.3,45.7l-2.4-7.6h-0.4l-2.4,7.6
			l-5.3,13.1h15.6L143.3,45.7z"/>
		<path class="st2" d="M198.2,72.6c-1.8,0.8-3.9,1.5-6.5,2s-5.3,0.8-8.2,0.8c-3.1,0-5.9-0.3-8.4-0.8c-2.5-0.5-4.6-1.5-6.3-3
			c-1.8-1.5-3.1-3.6-4.1-6.3c-1-2.7-1.4-6.3-1.4-10.7c0-4.4,0.5-8,1.4-10.7c1-2.7,2.3-4.8,4.1-6.3c1.8-1.5,3.9-2.5,6.3-3
			c2.5-0.5,5.3-0.8,8.4-0.8c5.8,0,10.5,0.8,14.1,2.5l-2.1,3.3c-1.2-0.4-2.9-0.9-4.9-1.4c-2.1-0.5-4.4-0.8-6.9-0.8
			c-2.3,0-4.3,0.2-6.3,0.5c-1.9,0.3-3.6,1.1-5,2.2c-1.4,1.2-2.5,2.9-3.3,5.2c-0.8,2.3-1.2,5.5-1.2,9.4c0,4,0.4,7.2,1.2,9.5
			c0.8,2.3,1.9,4,3.3,5.2c1.4,1.1,3.1,1.9,5,2.2c1.9,0.3,4,0.5,6.3,0.5c1.3,0,2.5-0.1,3.8-0.3c1.3-0.2,2.4-0.4,3.5-0.7
			c1.1-0.2,2.1-0.5,3-0.8c0.9-0.3,1.7-0.5,2.3-0.8L198.2,72.6z"/>
		<path class="st2" d="M245,79c-2.2,1.9-4.7,2.9-7.6,2.9c-1.3,0-2.5-0.2-3.8-0.6c-1.2-0.4-2.4-0.8-3.6-1.3s-2.4-0.9-3.6-1.3
			c-1.2-0.4-2.4-0.6-3.6-0.6c-1.2,0-2.3,0.2-3.4,0.6c-1.1,0.4-2.3,1.2-3.8,2.5v-3.5c1.1-1.2,2.4-2,4.1-2.5c-2.3-0.2-4.5-0.6-6.5-1.3
			c-2-0.7-3.7-1.8-5.2-3.3c-1.5-1.5-2.6-3.6-3.4-6.2c-0.8-2.6-1.3-5.9-1.3-9.9c0-4.5,0.5-8.1,1.6-10.9c1.1-2.7,2.5-4.8,4.3-6.3
			c1.8-1.5,3.9-2.5,6.4-2.9c2.4-0.5,5.1-0.7,7.9-0.7c2.8,0,5.4,0.2,7.8,0.7c2.4,0.5,4.6,1.5,6.4,2.9c1.8,1.5,3.3,3.6,4.3,6.3
			c1.1,2.7,1.6,6.3,1.6,10.9c0,4-0.4,7.3-1.3,9.9c-0.8,2.6-2,4.7-3.5,6.2c-1.5,1.5-3.2,2.7-5.3,3.3c-2,0.7-4.2,1.1-6.5,1.3
			c1,0.3,2,0.6,2.9,1s1.9,0.8,2.8,1.1c0.9,0.3,1.8,0.6,2.7,0.9c0.9,0.2,1.7,0.4,2.5,0.4c1.1,0,2.3-0.3,3.6-0.9s2.4-1.3,3.4-2.2V79z
			 M223.5,71.7c1.3,0,2.6,0,3.9-0.1c1.3-0.1,2.5-0.3,3.7-0.6c1.1-0.3,2.2-0.8,3.2-1.5c1-0.7,1.8-1.7,2.5-3c0.7-1.3,1.2-2.9,1.6-4.9
			c0.4-2,0.6-4.4,0.6-7.3c0-4.3-0.4-7.6-1.3-10c-0.9-2.4-2-4.1-3.5-5.2c-1.4-1.1-3.1-1.7-4.9-1.9c-1.9-0.2-3.8-0.3-5.8-0.3
			c-2,0-4,0.1-5.9,0.3c-1.9,0.2-3.5,0.8-4.9,1.9c-1.4,1.1-2.6,2.8-3.4,5.2c-0.9,2.4-1.3,5.7-1.3,10c0,2.9,0.2,5.3,0.6,7.3
			c0.4,2,0.9,3.6,1.6,4.9c0.7,1.3,1.5,2.3,2.5,3c1,0.7,2,1.2,3.2,1.5c1.1,0.3,2.4,0.5,3.7,0.6C220.8,71.7,222.1,71.7,223.5,71.7z"/>
		<path class="st2" d="M281.5,34.4h4.4v23.3c0,3.1-0.2,5.8-0.6,8c-0.4,2.2-1.2,4-2.4,5.4c-1.2,1.4-2.9,2.4-5.1,3.1
			c-2.2,0.7-5.1,1-8.7,1s-6.5-0.3-8.7-1c-2.2-0.7-4-1.7-5.2-3.1c-1.2-1.4-2.1-3.2-2.5-5.4c-0.4-2.2-0.7-4.9-0.7-8V34.4h4.4v23.2
			c0,2.5,0.1,4.6,0.4,6.4c0.3,1.8,0.8,3.2,1.7,4.3s2.1,2,3.8,2.5c1.7,0.5,3.9,0.8,6.7,0.8s5-0.3,6.7-0.8c1.6-0.5,2.9-1.3,3.8-2.5
			c0.9-1.1,1.4-2.6,1.7-4.3s0.4-3.9,0.4-6.4V34.4z"/>
		<path class="st2" d="M294.3,74.5V34.4h4.5v40.2H294.3z"/>
		<path class="st2" d="M343.7,74.5c-1,0.2-2,0.2-2.9,0.2c-0.9-0.1-1.8-0.3-2.7-0.8s-1.8-1.1-2.7-2.1c-0.9-0.9-2-2.2-3.2-3.8l-5.9-8
			h-1.1h-11.7v14.4H309V34.4h16.2c3,0,5.4,0.2,7.4,0.5c2,0.3,3.6,0.9,4.8,1.8c1.2,0.9,2.1,2.2,2.6,3.9c0.5,1.7,0.8,3.9,0.8,6.7
			c0,2.2-0.2,4.1-0.5,5.6s-0.8,2.7-1.6,3.7c-0.7,1-1.7,1.7-2.9,2.2c-1.2,0.5-2.7,0.9-4.4,1.1l4.8,6.3c1,1.3,1.8,2.2,2.5,2.9
			c0.7,0.7,1.4,1.2,2,1.6c0.6,0.4,1.2,0.6,1.8,0.6c0.6,0.1,1.2,0.1,1.8,0L343.7,74.5z M325.3,56.5c2,0,3.6-0.1,5-0.2
			c1.4-0.1,2.5-0.5,3.3-1.1c0.9-0.6,1.5-1.5,1.9-2.8c0.4-1.2,0.6-2.9,0.6-5.2c0-2.3-0.2-4.1-0.6-5.3c-0.4-1.3-1-2.2-1.9-2.8
			c-0.9-0.6-2-0.9-3.3-1.1s-3-0.2-5-0.2h-11.8v18.6H325.3z"/>
		<path class="st2" d="M349.1,54.4c0-4.5,0.5-8.1,1.6-10.9c1.1-2.7,2.5-4.8,4.3-6.3c1.8-1.5,3.9-2.5,6.4-2.9
			c2.4-0.5,5.1-0.7,7.9-0.7c2.8,0,5.4,0.2,7.8,0.7c2.4,0.5,4.6,1.5,6.4,2.9c1.8,1.5,3.3,3.6,4.3,6.3c1.1,2.7,1.6,6.3,1.6,10.9
			s-0.5,8.1-1.6,10.9c-1.1,2.7-2.5,4.8-4.3,6.3s-3.9,2.5-6.4,2.9s-5.1,0.7-7.8,0.7c-2.8,0-5.4-0.2-7.9-0.7s-4.6-1.5-6.4-2.9
			c-1.8-1.5-3.3-3.6-4.3-6.3S349.1,58.9,349.1,54.4z M369.2,37.1c-2,0-4,0.1-5.9,0.3c-1.9,0.2-3.5,0.8-4.9,1.9
			c-1.4,1.1-2.6,2.8-3.4,5.2c-0.9,2.4-1.3,5.7-1.3,10c0,2.9,0.2,5.3,0.6,7.3c0.4,2,0.9,3.6,1.6,4.9c0.7,1.3,1.5,2.3,2.5,3
			c1,0.7,2,1.2,3.2,1.5c1.1,0.3,2.4,0.5,3.7,0.6c1.3,0.1,2.6,0.1,4,0.1c1.3,0,2.6,0,3.9-0.1c1.3-0.1,2.5-0.3,3.7-0.6
			c1.1-0.3,2.2-0.8,3.2-1.5c1-0.7,1.8-1.7,2.5-3c0.7-1.3,1.2-2.9,1.6-4.9c0.4-2,0.6-4.4,0.6-7.3c0-4.3-0.4-7.6-1.3-10
			c-0.9-2.4-2-4.1-3.5-5.2c-1.4-1.1-3.1-1.7-4.9-1.9C373.1,37.2,371.2,37.1,369.2,37.1z"/>
		<path class="st2" d="M206.7,135V99.8h-0.2L191.6,135h-4.9l-14.9-35.2h-0.2V135h-4.3V94.8h6.8l12.4,28.9l2.6,7.6l2.6-7.6l12.4-28.9
			h6.8V135H206.7z"/>
		<path class="st2" d="M220.9,135V94.8h30l-0.6,3.6h-24.9v14h20.2v3.6h-20.2v15.4h25.5l-0.6,3.6H220.9z"/>
		<path class="st2" d="M256.3,135V94.8h14.4c3,0,5.8,0.2,8.3,0.6s4.6,1.3,6.4,2.7c1.8,1.4,3.1,3.4,4.1,6c1,2.6,1.4,6.2,1.4,10.6
			c0,4.5-0.4,8-1.3,10.7c-0.9,2.7-2.1,4.7-3.8,6.2c-1.7,1.4-3.7,2.3-6.1,2.8c-2.4,0.4-5.2,0.7-8.4,0.7H256.3z M270.7,131.3
			c2.9,0,5.3-0.2,7.3-0.5c2-0.3,3.6-1.1,4.8-2.3c1.2-1.2,2.1-2.9,2.6-5.1c0.5-2.2,0.8-5.2,0.8-8.9c0-4-0.4-7-1.2-9.2
			c-0.8-2.2-1.9-3.8-3.3-4.8s-3.1-1.6-5-1.8c-1.9-0.2-4-0.3-6.3-0.3h-9.8v33H270.7z"/>
		<path class="st2" d="M299.4,135V94.8h4.5V135H299.4z"/>
		<path class="st2" d="M344.2,135l-5.1-12.6h-18.2l-5,12.6h-4.6l16.1-40.2h5.4l16.1,40.2H344.2z M332.6,106.1l-2.4-7.6h-0.4
			l-2.4,7.6l-5.3,13.1h15.6L332.6,106.1z"/>
	</g>
</g>
</svg>
